<svg width="46" height="26" viewBox="0 0 46 26" fill="none" xmlns="http://www.w3.org/2000/svg">
  <g clip-path="url(#clip0_4_1072)">
    <path d="M25.7097 10.9415C21.4934 8.15064 18.1174 5.92999 14.7565 3.70934C14.9065 3.04914 15.0565 2.38895 15.2066 1.72876C17.1872 1.59372 19.4678 0.753472 21.1183 1.42867C28.9206 4.68462 36.6629 8.16565 44.1501 12.0668C45.2754 12.652 45.5755 17.6634 45.2754 17.7685C37.8182 20.3342 30.226 22.4948 22.6488 24.7155C22.2737 23.8152 21.8986 22.9 21.5084 21.9997C23.1439 20.4392 24.7644 18.8938 27.4802 16.298C17.9974 16.298 9.47491 16.298 0.952415 16.298C0.892398 15.3978 0.817378 14.4975 0.757358 13.5972C8.13952 9.35099 16.767 12.5169 25.7097 10.9415Z" fill="#1E1E1E" />
  </g>
  <defs>
    <clipPath id="clip0_4_1072">
      <rect width="24.3521" height="45.1182" fill="white" transform="translate(45.6205 0.708496) rotate(90)" />
    </clipPath>
  </defs>
</svg>