<svg width="46" height="24" viewBox="0 0 46 24" fill="none" xmlns="http://www.w3.org/2000/svg">
  <path d="M20.413 13.8276C24.6292 16.6184 28.0052 18.8391 31.3662 21.0597C31.2162 21.7199 31.0661 22.3801 30.9161 23.0403C28.9355 23.1753 26.6548 24.0156 25.0044 23.3404C17.2021 20.0844 9.4598 16.6034 1.97261 12.7023C0.84728 12.1171 0.547192 7.10562 0.84728 7.00059C8.30446 4.43483 15.8967 2.2742 23.4739 0.053551C23.849 0.953814 24.2241 1.86908 24.6142 2.76935C22.9788 4.3298 21.3583 5.87526 18.6425 8.47102C28.1253 8.47102 36.6478 8.47102 45.1703 8.47102C45.2303 9.37128 45.3053 10.2715 45.3653 11.1718C37.9832 15.4181 29.3556 12.2521 20.413 13.8276Z" fill="#1E1E1E" />
</svg>