<svg width="120" height="16" viewBox="0 0 120 16" fill="none" xmlns="http://www.w3.org/2000/svg">
  <path d="M0 8.30551C0 2.82706 2.38936 0.065918 6.15854 0.065918C8.76703 0.065918 10.7393 1.33692 11.2864 4.20838L11.374 4.66933L9.13881 5.15143L9.05116 4.73583C8.63404 2.80741 7.56102 2.06234 6.11471 2.06234C4.07597 2.06234 2.45435 3.83812 2.45435 8.15438C2.45435 12.2303 3.92333 13.9396 5.98323 13.9396C7.45221 13.9396 9.16148 13.1734 9.16148 10.4772V10.0178H5.9394V8.11055H11.3967V15.6716H9.44561L9.31412 13.8081C8.59021 15.3194 7.16657 15.9345 5.50112 15.9345C2.17022 15.9315 0 13.2807 0 8.30551Z" fill="#F9F9F9" />
  <path d="M19.8102 14.6168C19.1301 15.3392 18.2324 15.9105 16.7861 15.9316C14.7262 15.9316 13.3887 14.5503 13.3887 12.776C13.3887 10.8476 14.9891 9.90456 16.3916 9.51011L19.789 8.5459V8.15145C19.789 6.92428 19.0213 6.31069 17.8168 6.31069C16.6984 6.31069 15.8007 7.01194 15.4063 7.80083L15.3398 7.93232L13.6078 7.01194L13.7181 6.7928C14.2002 5.80592 15.5377 4.44727 18.0132 4.44727C20.4887 4.44727 22.0681 5.69711 22.0681 7.95347V13.7176C22.0681 14.2647 22.0907 14.9886 22.1995 15.4707L22.2434 15.6686H19.9643L19.9417 15.5583C19.8752 15.2515 19.8313 14.9447 19.8102 14.6168ZM17.377 14.1997C18.385 14.1997 19.2842 13.6072 19.7875 12.9725V10.2114L17.4208 10.9353C16.5231 11.2194 15.7327 11.6803 15.7327 12.6234C15.7327 13.5664 16.369 14.2012 17.377 14.2012V14.1997Z" fill="#F9F9F9" />
  <path d="M35.3024 6.42097C34.4047 6.42097 33.4616 7.03456 32.9357 7.56049V15.6686H30.6566V8.10758C30.6566 6.98922 30.0869 6.41946 28.9912 6.41946C28.0935 6.41946 27.1504 7.03305 26.6245 7.55898V15.6671H24.3455V4.7117H26.5157V5.91771C27.3484 5.04116 28.5318 4.44873 29.7589 4.44873C31.2929 4.44873 32.2133 5.14997 32.6515 6.11418C33.4843 5.1273 34.7553 4.44873 36.0701 4.44873C38.328 4.44873 39.2484 5.96154 39.2484 7.60432V15.6686H36.9693V8.10758C36.9693 6.98922 36.3996 6.41946 35.3039 6.41946L35.3024 6.42097Z" fill="#F9F9F9" />
  <path d="M43.9153 14.6607L43.6961 15.6688H41.7677V0.329102H44.0467V5.61108C44.7042 4.86601 45.7122 4.4489 46.764 4.4489C49.2622 4.4489 50.9503 6.31233 50.9503 10.0377C50.9503 13.763 49.1746 15.9332 46.6764 15.9332C45.558 15.9332 44.5288 15.4723 43.9153 14.6622V14.6607ZM46.2381 14.091C47.5318 14.091 48.6275 12.9076 48.6275 10.1027C48.6275 7.29769 47.488 6.31081 46.1943 6.31081C45.3177 6.31081 44.5938 6.74909 44.0467 7.31885V13.0391C44.6165 13.6315 45.3616 14.091 46.2381 14.091Z" fill="#F9F9F9" />
  <path d="M52.8334 0.329102H55.1124V15.6688H52.8334V0.329102Z" fill="#F9F9F9" />
  <path d="M57.1287 10.3443C57.1287 6.88192 58.8606 4.44873 61.8847 4.44873C64.0111 4.44873 66.2448 5.71973 66.2448 9.66422V10.6934H59.3639V10.8249C59.3639 12.9513 60.4822 14.1346 61.9709 14.1346C62.9351 14.1346 63.7466 13.7402 64.2937 12.7533L64.4252 12.5115L66.2221 13.2792L66.1133 13.4984C65.3018 15.12 63.8554 15.9316 61.9059 15.9316C59.1447 15.9316 57.1287 13.9805 57.1287 10.3428V10.3443ZM64.0973 9.18211V9.02796C64.0973 7.03305 63.0454 6.28798 61.8847 6.28798C60.724 6.28798 59.583 7.16453 59.3865 9.1806H64.0988L64.0973 9.18211Z" fill="#F9F9F9" />
  <path d="M72.293 0.329102H75.6028L79.9417 15.6688H77.5085L76.434 11.6366H71.35L70.2755 15.6688H67.9738L72.293 0.329102ZM75.9096 9.75204L73.8935 2.21369L71.8774 9.75204H75.9096Z" fill="#EF681C" />
  <path d="M79.3702 4.71191H81.6493L83.4462 12.5359L85.4411 4.71191H87.5887L89.5398 12.5359L91.4032 4.71191H93.4858L90.6581 15.6688H88.4002L86.428 7.8675L84.4331 15.6688H82.1979L79.3702 4.71191Z" fill="#EF681C" />
  <path d="M100.211 14.6168C99.531 15.3392 98.6333 15.9105 97.1869 15.9316C95.127 15.9316 93.7896 14.5503 93.7896 12.776C93.7896 10.8476 95.3885 9.90456 96.7925 9.51011L100.19 8.5459V8.15145C100.19 6.92428 99.4222 6.31069 98.2176 6.31069C97.1008 6.31069 96.2016 7.01194 95.8071 7.80083L95.7421 7.93232L94.0102 7.01194L94.1205 6.7928C94.6026 5.80592 95.9401 4.44727 98.4156 4.44727C100.891 4.44727 102.47 5.69711 102.47 7.95347V13.7176C102.47 14.2647 102.493 14.9886 102.602 15.4707L102.646 15.6686H100.367L100.344 15.5583C100.279 15.2515 100.235 14.9447 100.213 14.6168H100.211ZM97.7794 14.1997C98.7874 14.1997 99.6866 13.6072 100.19 12.9725V10.2114L97.8232 10.9353C96.924 11.2194 96.1351 11.6803 96.1351 12.6234C96.1351 13.5664 96.7713 14.2012 97.7794 14.2012V14.1997Z" fill="#EF681C" />
  <path d="M104.682 4.71226H106.808V6.77216C108.254 5.08404 109.548 4.58077 110.644 4.55811V6.6845C109.11 6.6845 107.904 7.53989 106.962 8.39378V15.6692H104.683V4.71226H104.682Z" fill="#EF681C" />
  <path d="M110.882 10.3443C110.882 6.88192 112.614 4.44873 115.638 4.44873C117.765 4.44873 120 5.71973 120 9.66422V10.6934H113.119V10.8249C113.119 12.9513 114.237 14.1346 115.728 14.1346C116.692 14.1346 117.503 13.7402 118.05 12.7533L118.182 12.5115L119.979 13.2792L119.87 13.4984C119.058 15.12 117.612 15.9316 115.663 15.9316C112.901 15.9316 110.885 13.9805 110.885 10.3428L110.882 10.3443ZM117.851 9.18211V9.02796C117.851 7.03305 116.799 6.28798 115.637 6.28798C114.475 6.28798 113.335 7.16453 113.139 9.1806H117.851V9.18211Z" fill="#EF681C" />
</svg>